<svg width="223" height="205" viewBox="0 0 223 205" fill="none" xmlns="http://www.w3.org/2000/svg">
<path d="M43.1021 4.28255C81.4035 -2.89896 103.654 21.8217 110.053 35.1796C114.074 26.7393 129.756 2.48706 167.102 4.28255C219.102 6.78256 230.102 69.7825 211.602 101.283C196.802 126.483 137.769 178.449 110.102 201.283C79.6021 176.449 16.7021 121.683 9.10207 101.283C-0.397927 75.7825 -4.89793 13.2825 43.1021 4.28255Z" fill="#51FC8D"/>
<path d="M110.102 35.2825C103.769 21.9492 81.5021 -2.91745 43.1021 4.28255C-4.89793 13.2825 -0.397927 75.7825 9.10207 101.283C16.7021 121.683 79.6021 176.449 110.102 201.283C137.769 178.449 196.802 126.483 211.602 101.283C230.102 69.7825 219.102 6.78256 167.102 4.28255C115.102 1.78253 105.102 49.7826 110.102 35.2825Z" stroke="#51FC8D" stroke-width="5"/>
</svg>
